<?xml version="1.0" encoding="utf-8"?>
<!-- Generator: Adobe Illustrator 16.0.0, SVG Export Plug-In . SVG Version: 6.00 Build 0)  -->
<!DOCTYPE svg PUBLIC "-//W3C//DTD SVG 1.1//EN" "http://www.w3.org/Graphics/SVG/1.1/DTD/svg11.dtd">
<svg version="1.1" xmlns="http://www.w3.org/2000/svg" xmlns:xlink="http://www.w3.org/1999/xlink" x="0px" y="0px" width="1080px"
	 height="1080px" viewBox="0 0 1080 1080" enable-background="new 0 0 1080 1080" xml:space="preserve">
<g id="Background" display="none">
	<rect y="0.001" display="inline" fill="#FFFFFF" width="1080" height="1079.999"/>
</g>
<g id="Left_Moon">
	<g id="XMLID_3_">
		<g>
			<path d="M295.277,344.53c-73.196,72.519-34.627,229.913,86.241,351.911l0.292,0.295
				c120.458,122.393,277.356,162.954,350.796,90.681C610.2,907.875,413.691,906.302,293.233,783.908
				C172.365,661.91,173.285,465.393,295.277,344.53z"/>
		</g>
		<g>
		</g>
	</g>
</g>
<g id="Right_Moon">
	<g id="XMLID_9_">
		<g>
			<path d="M786.047,295.358l-0.006,0.006c121.273,121.585,121.012,318.106-0.573,439.38
				c72.953-72.765,33.854-230.033-87.42-351.618l-0.285-0.301c-120.868-121.998-277.898-162.029-351.094-89.51
				C468.66,172.452,665.179,173.36,786.047,295.358z"/>
		</g>
		<g>
		</g>
	</g>
</g>
<g id="Performance_Star">
	<path d="M535.263,490.957c-54.9-28.681-150.091-105.896-249.764-205.57c99.582,99.582,176.748,194.695,205.499,249.623
		c-5.537,38.205-31.006,85.001-71.913,125.907c40.906-40.906,87.703-66.376,125.907-71.912
		c54.929,28.75,150.042,105.917,249.623,205.499c-99.674-99.674-176.89-194.864-205.569-249.764
		c5.607-38.163,31.056-84.839,71.87-125.653C620.102,459.9,573.426,485.349,535.263,490.957z M571.82,571.821
		c-17.586-17.586-46.054-17.586-63.64,0c17.586-17.586,17.586-46.054,0-63.64c17.586,17.585,46.054,17.585,63.64,0
		C554.234,525.767,554.234,554.235,571.82,571.821z"/>
	<g>
	</g>
	<g>
	</g>
	<g>
	</g>
	<g>
	</g>
	<g>
	</g>
	<g>
	</g>
</g>
</svg>
