<?xml version="1.0" encoding="utf-8"?>
<!-- Generator: Adobe Illustrator 16.0.0, SVG Export Plug-In . SVG Version: 6.00 Build 0)  -->
<!DOCTYPE svg PUBLIC "-//W3C//DTD SVG 1.1//EN" "http://www.w3.org/Graphics/SVG/1.1/DTD/svg11.dtd">
<svg version="1.1" xmlns="http://www.w3.org/2000/svg" xmlns:xlink="http://www.w3.org/1999/xlink" x="0px" y="0px" width="1080px"
	 height="1080px" viewBox="0 0 1080 1080" enable-background="new 0 0 1080 1080" xml:space="preserve">
<g id="Circle" display="none">
	<circle display="inline" fill="none" stroke="#231F20" stroke-width="9" stroke-miterlimit="10" cx="540" cy="540" r="450"/>
</g>
<g id="BackGround" display="none">
	<rect y="0" display="inline" fill="none" width="1080" height="1079.999"/>
</g>
<g id="Color_Background" display="none">
	<rect y="0.001" display="inline" fill="#E6F0F9" width="1080" height="1079.999"/>
</g>
<g id="Left_Moon">
	<g id="XMLID_3_">
		<g>
			<path fill="#91A5C1" d="M284.104,341.732c-73.196,72.519-34.627,229.913,86.241,351.911l0.292,0.295
				c120.458,122.393,277.357,162.954,350.796,90.681c-122.405,120.458-318.915,118.885-439.372-3.508
				C161.192,659.113,162.112,462.595,284.104,341.732z"/>
		</g>
		<g>
		</g>
	</g>
</g>
<g id="Right_Moon">
	<g id="XMLID_9_">
		<g>
			<path fill="#2B4665" d="M774.874,292.561l-0.006,0.006c121.272,121.585,121.012,318.106-0.573,439.379
				c72.953-72.764,33.853-230.033-87.42-351.618l-0.285-0.3C565.721,258.03,408.691,217.999,335.495,290.517
				C457.487,169.655,654.006,170.563,774.874,292.561z"/>
		</g>
		<g>
		</g>
	</g>
</g>
<g id="Rebranded_Star">
	<path id="XMLID_6_" fill="#233E59" d="M664.957,406.114c-6.344,6.409-12.279,13.014-17.782,19.765l-0.953-0.839
		c-33.264,33.605-69.374,57.586-99.884,68.53c-9.582-3.563-20.922-9.167-33.741-16.61
		C560.813,478.203,618.297,453.251,664.957,406.114z M646.222,425.04l0.953,0.839c-35.023,42.896-53.011,91.656-51.518,133.301
		c-7.559-12.729-13.284-24.006-16.943-33.551C589.34,495.002,612.958,458.645,646.222,425.04z M546.338,493.57
		c30.51-10.944,66.62-34.925,99.884-68.53c-33.264,33.605-56.882,69.962-67.508,100.588c-5.802-15.1-6.457-25.866-1.186-31.192
		C572.257,499.762,561.489,499.211,546.338,493.57z M571.133,500.898c0.052-0.053,0.099-0.1,0.15-0.152
		c-7.379,7.455-5.952,22.627,2.596,42.684c-3.448,18.393-0.979,33.567,8.359,43.091
		C555.674,559.695,550.712,521.527,571.133,500.898z M571.283,500.746c-0.052,0.052-0.099,0.1-0.15,0.152
		c-20.997,20.778-59.429,16.084-86.062-10.55c9.6,9.502,24.935,11.911,43.504,8.236C548.718,506.928,563.904,508.2,571.283,500.746z
		 M546.338,493.57c15.151,5.641,25.919,6.192,31.19,0.866c-5.271,5.326-4.616,16.092,1.186,31.192
		c-2.16,6.189-3.771,12.151-4.835,17.801c-8.548-20.057-9.975-35.229-2.596-42.684c-7.379,7.455-22.565,6.182-42.708-2.161
		C534.221,497.47,540.164,495.786,546.338,493.57z M512.597,476.96c12.818,7.443,24.159,13.047,33.741,16.61
		c-6.174,2.216-12.117,3.9-17.763,5.014c-13.869-5.745-30.08-14.838-47.72-26.752C490.778,474.982,501.435,476.674,512.597,476.96z
		 M578.714,525.628c3.659,9.545,9.385,20.823,16.943,33.551c0.4,11.159,2.207,21.805,5.452,31.688
		c-12.081-17.517-21.352-33.636-27.23-47.438C574.942,537.779,576.554,531.818,578.714,525.628z M512.597,476.96
		c-11.163-0.287-21.819-1.978-31.742-5.128c-28.654-19.339-61.067-46.105-93.271-77.983c32.205,31.878,59.299,64.017,78.929,92.473
		c3.251,9.89,5.051,20.529,5.452,31.688c-35.292-59.375-110.857-150.37-206.239-244.786
		C361.106,367.64,452.867,442.274,512.597,476.96z M601.109,590.868c-3.245-9.884-5.052-20.529-5.452-31.688
		c35.292,59.374,110.857,150.37,206.239,244.786c-95.382-94.416-187.142-169.051-246.872-203.737
		c11.162,0.287,21.826,1.985,31.742,5.129c28.66,19.346,61.073,46.111,93.278,77.99C647.84,651.469,620.745,619.33,601.109,590.868z
		 M480.855,471.832c17.64,11.914,33.851,21.007,47.72,26.752c-18.569,3.675-33.904,1.266-43.504-8.236
		c0.108,0.107,0.216,0.214,0.32,0.327c9.337,9.524,11.807,24.699,8.358,43.091c-5.886-13.81-15.144-29.927-27.237-47.445
		c-4.507-13.767-11.825-26.049-22.061-36.181C454.687,460.272,467.048,467.46,480.855,471.832z M573.879,543.43
		c5.879,13.803,15.149,29.922,27.23,47.438c4.512,13.762,11.825,26.049,22.061,36.182c-10.235-10.133-22.597-17.32-36.403-21.692
		c-17.639-11.902-33.852-21.008-47.713-26.746c18.57-3.675,33.905-1.266,43.504,8.236c-0.108-0.107-0.217-0.214-0.319-0.327
		C572.9,576.997,570.431,561.822,573.879,543.43z M480.855,471.832c-13.807-4.372-26.168-11.56-36.404-21.692
		c10.236,10.132,17.554,22.414,22.061,36.181c-19.629-28.456-46.724-60.594-78.929-92.473
		C419.788,425.727,452.201,452.493,480.855,471.832z M623.17,627.05c-10.235-10.133-17.549-22.42-22.061-36.182
		c19.636,28.462,46.73,60.601,78.936,92.479c-32.205-31.879-64.618-58.645-93.278-77.99
		C600.573,609.729,612.935,616.917,623.17,627.05z M496.496,576.298c20.997-20.777,59.429-16.084,86.062,10.55
		c-9.6-9.502-24.935-11.911-43.504-8.236c-20.143-8.343-35.329-9.615-42.708-2.16C496.397,576.398,496.444,576.351,496.496,576.298z
		 M493.749,533.766c3.449-18.392,0.979-33.567-8.358-43.091c26.563,26.826,31.526,64.994,11.105,85.623
		c-0.052,0.053-0.099,0.101-0.151,0.153C503.724,568.996,502.297,553.823,493.749,533.766z M466.512,486.321
		c12.093,17.518,21.351,33.635,27.237,47.445c-1.056,5.658-2.68,11.618-4.833,17.814c-3.66-9.546-9.38-20.829-16.953-33.57
		C471.563,506.851,469.764,496.211,466.512,486.321z M539.053,578.611c13.862,5.738,30.075,14.844,47.713,26.746
		c-9.916-3.144-20.58-4.842-31.742-5.129c-12.805-7.429-24.14-13.039-33.722-16.602
		C527.469,581.405,533.414,579.732,539.053,578.611z M493.749,533.766c8.548,20.057,9.975,35.23,2.596,42.685
		c7.379-7.455,22.566-6.183,42.708,2.16c-5.64,1.121-11.584,2.794-17.751,5.016c-15.159-5.647-25.931-6.193-31.202-0.867
		c5.271-5.326,4.611-16.087-1.184-31.18C491.069,545.384,492.693,539.424,493.749,533.766z M471.964,518.01
		c7.573,12.742,13.292,24.024,16.953,33.57c-10.634,30.619-34.246,66.971-67.51,100.576l0.848,0.943
		c-6.695,5.572-13.239,11.574-19.583,17.982C449.331,623.945,473.697,566.21,471.964,518.01z M521.302,583.627
		c9.582,3.563,20.917,9.173,33.722,16.602c-41.659-1.069-90.232,17.413-132.77,52.871l-0.848-0.943
		C454.67,618.551,490.785,594.564,521.302,583.627z M488.917,551.58c5.794,15.093,6.455,25.854,1.184,31.18
		c5.271-5.326,16.043-4.78,31.202,0.867c-30.517,10.938-66.632,34.924-99.896,68.529C454.67,618.551,478.283,582.199,488.917,551.58
		z"/>
	<g>
	</g>
	<g>
	</g>
	<g>
	</g>
	<g>
	</g>
	<g>
	</g>
	<g>
	</g>
</g>
</svg>
