<?xml version="1.0" encoding="utf-8"?>
<!-- Generator: Adobe Illustrator 16.0.0, SVG Export Plug-In . SVG Version: 6.00 Build 0)  -->
<!DOCTYPE svg PUBLIC "-//W3C//DTD SVG 1.1//EN" "http://www.w3.org/Graphics/SVG/1.1/DTD/svg11.dtd">
<svg version="1.1" xmlns="http://www.w3.org/2000/svg" xmlns:xlink="http://www.w3.org/1999/xlink" x="0px" y="0px" width="1080px"
	 height="1080px" viewBox="0 0 1080 1080" enable-background="new 0 0 1080 1080" xml:space="preserve">
<g id="Background" display="none">
	<rect y="0.001" display="inline" fill="#E6F0F9" width="1080" height="1079.999"/>
</g>
<g id="Left_Moon">
	<g id="XMLID_3_">
		<g>
			<path fill="#91A5C1" d="M295.276,344.53c-73.196,72.519-34.627,229.914,86.241,351.912l0.292,0.294
				c120.458,122.394,277.357,162.955,350.795,90.682c-122.404,120.457-318.914,118.885-439.371-3.509
				C172.364,661.91,173.284,465.392,295.276,344.53z"/>
		</g>
		<g>
		</g>
	</g>
</g>
<g id="Right_Moon">
	<g id="XMLID_9_">
		<g>
			<path fill="#2B4665" d="M786.046,295.358l-0.007,0.006c121.273,121.585,121.013,318.106-0.572,439.379
				c72.953-72.764,33.853-230.033-87.42-351.618l-0.286-0.3c-120.868-121.998-277.897-162.029-351.094-89.511
				C468.659,172.452,665.177,173.36,786.046,295.358z"/>
		</g>
		<g>
		</g>
	</g>
</g>
<g id="PerfectStar">
	<g id="XMLID_1_">
		<g>
			<path fill="#233E59" d="M540.001,489.088c44.548,6.364,127.279-76.368,127.279-76.368S584.549,495.452,590.912,540
				c3.818,26.729,203.647,254.559,203.647,254.559S566.729,594.73,540.001,590.912c-44.548-6.364-127.279,76.367-127.279,76.367
				S495.453,584.548,489.089,540c-3.818-26.729-203.647-254.559-203.647-254.559S513.272,485.27,540.001,489.088z M571.368,508.633
				c-17.338,17.338-47.737,14.998-67.96-5.226c20.223,20.223,22.563,50.622,5.226,67.96c17.338-17.338,47.736-14.998,67.96,5.226
				C556.37,556.369,554.03,525.971,571.368,508.633z"/>
		</g>
		<g>
		</g>
	</g>
	<g>
	</g>
	<g>
	</g>
	<g>
	</g>
	<g>
	</g>
	<g>
	</g>
	<g>
	</g>
</g>
</svg>
