<?xml version="1.0" encoding="utf-8"?>
<!-- Generator: Adobe Illustrator 16.0.0, SVG Export Plug-In . SVG Version: 6.00 Build 0)  -->
<!DOCTYPE svg PUBLIC "-//W3C//DTD SVG 1.1//EN" "http://www.w3.org/Graphics/SVG/1.1/DTD/svg11.dtd">
<svg version="1.1" xmlns="http://www.w3.org/2000/svg" xmlns:xlink="http://www.w3.org/1999/xlink" x="0px" y="0px" width="1080px"
	 height="1080px" viewBox="0 0 1080 1080" enable-background="new 0 0 1080 1080" xml:space="preserve">
<g id="Background" display="none">
	<rect y="0.001" display="inline" width="1080" height="1079.999"/>
</g>
<g id="Left_Moon">
	<g id="XMLID_3_">
		<g>
			<path fill="#FFFFFF" d="M295.274,344.53c-73.196,72.519-34.627,229.914,86.241,351.912l0.292,0.294
				c120.458,122.393,277.356,162.954,350.796,90.682c-122.405,120.457-318.915,118.884-439.372-3.509
				C172.362,661.91,173.282,465.392,295.274,344.53z"/>
		</g>
		<g>
		</g>
	</g>
</g>
<g id="Right_Moon">
	<g id="XMLID_9_">
		<g>
			<path fill="#FFFFFF" d="M786.044,295.358l-0.006,0.006c121.272,121.585,121.012,318.106-0.573,439.379
				c72.953-72.764,33.854-230.033-87.42-351.618l-0.285-0.3c-120.869-121.999-277.898-162.029-351.095-89.511
				C468.657,172.452,665.176,173.36,786.044,295.358z"/>
		</g>
		<g>
		</g>
	</g>
</g>
<g id="PerfectStar">
	<g>
		<g id="XMLID_1_">
			<g>
				<path fill="#FFFFFF" d="M540,489.088c44.548,6.364,127.279-76.368,127.279-76.368S584.548,495.452,590.911,540
					c3.818,26.729,203.647,254.559,203.647,254.559S566.729,594.73,540,590.912c-44.548-6.364-127.279,76.367-127.279,76.367
					S495.452,584.548,489.088,540c-3.818-26.729-203.647-254.559-203.647-254.559S513.271,485.27,540,489.088z M565.456,514.544
					c-14.072,14.072-36.841,14.072-50.912,0c14.071,14.072,14.071,36.841,0,50.912c14.071-14.071,36.84-14.071,50.912,0
					C551.384,551.385,551.384,528.616,565.456,514.544z"/>
			</g>
			<g>
			</g>
		</g>
	</g>
	<g>
	</g>
	<g>
	</g>
	<g>
	</g>
	<g>
	</g>
	<g>
	</g>
	<g>
	</g>
</g>
</svg>
